<svg fill="#4FA9B3" data-icon="true" xml:space="preserve" style="enable-background:new 0 0 48 48;" viewBox="-20 -20 88 88" y="0px" x="0px" version="1.1" xmlns:xlink="http://www.w3.org/1999/xlink" xmlns="http://www.w3.org/2000/svg"><g><path d="M15.2,34.7c-2.6,0-4.7,2.1-4.7,4.7s2.1,4.7,4.7,4.7s4.7-2.1,4.7-4.7S17.8,34.7,15.2,34.7z M15.2,42.4   c-1.7,0-3.1-1.4-3.1-3.1c0-1.7,1.4-3.1,3.1-3.1s3.1,1.4,3.1,3.1C18.3,41,16.9,42.4,15.2,42.4z"></path><circle r="4.7" cy="23.5" cx="15.2"></circle><path d="M15.2,4c-2.6,0-4.7,2.1-4.7,4.7s2.1,4.7,4.7,4.7s4.7-2.1,4.7-4.7S17.8,4,15.2,4z M15.2,11.7c-1.7,0-3.1-1.4-3.1-3.1   c0-1.7,1.4-3.1,3.1-3.1s3.1,1.4,3.1,3.1C18.3,10.4,16.9,11.7,15.2,11.7z"></path><path d="M37.4,25.7l-2.4-3l-2.8,2.7l0.4,0.5l2-1.9c-0.1,1.2-0.6,2.3-1.4,3.1c-1.9,1.9-5.1,1.9-7,0c-1.9-1.9-1.9-5.1,0-7   c1-1,2.4-1.5,3.9-1.4l0.1,0l0.1-0.8l0,0c0,0,0,0-0.1,0c-1.7-0.1-3.3,0.5-4.5,1.7c-2.2,2.2-2.2,5.9,0,8.1c1.1,1.1,2.6,1.7,4.1,1.7   c1.5,0,2.9-0.6,4.1-1.7c0.9-0.9,1.5-2.1,1.6-3.4l1.5,1.8L37.4,25.7z"></path><circle r="2" cy="23.7" cx="29.8"></circle><g><path d="M28.8,10.5v5.6H31v-5.6c0-1.6-1.4-2.9-3.1-2.9h-6v2.1h6C28.4,9.7,28.8,10.1,28.8,10.5z"></path><path d="M28.8,30.8v6.7c0,0.4-0.4,0.8-0.9,0.8h-6v2.1h6c1.7,0,3.1-1.3,3.1-2.9v-6.7H28.8z"></path></g></g></svg>